<svg width="28" height="29" viewBox="0 0 28 29" fill="none" xmlns="http://www.w3.org/2000/svg">
<path d="M21.667 20.326C22.882 20.326 23.969 19.601 24.436 18.48L27.769 10.4801C28.156 9.55205 28.054 8.49905 27.498 7.66305C26.94 6.82605 26.007 6.32605 25.001 6.32605H6.824L6.127 2.75105C5.853 1.34605 4.614 0.32605 3.183 0.32605H1C0.447 0.32605 0 0.77405 0 1.32605C0 1.87805 0.447 2.32605 1 2.32605H3.183C3.661 2.32605 4.073 2.66605 4.164 3.13505L5.014 7.49705L6.819 18.327H5.999C4.345 18.327 2.999 19.673 2.999 21.327C2.999 22.981 4.345 24.327 5.999 24.327H7.183C7.071 24.641 6.999 24.975 6.999 25.327C6.999 26.981 8.345 28.327 9.999 28.327C11.653 28.327 12.999 26.981 12.999 25.327C12.999 24.975 12.927 24.641 12.815 24.327H16.184C16.072 24.641 16 24.975 16 25.327C16 26.981 17.346 28.327 19 28.327C20.654 28.327 22 26.981 22 25.327C22 24.975 21.928 24.641 21.816 24.327H23C23.553 24.327 24 23.879 24 23.327C24 22.775 23.553 22.327 23 22.327H6C5.448 22.327 5 21.878 5 21.327C5 20.776 5.448 20.327 6 20.327L21.667 20.326Z" fill="#222222"/>
</svg>
