<svg width="18" height="18" viewBox="0 0 18 18" fill="none" xmlns="http://www.w3.org/2000/svg">
<path d="M13.8437 12.376C14.5955 12.376 15.2681 11.9274 15.5571 11.2338L17.6195 6.28351C17.8589 5.70928 17.7958 5.0577 17.4518 4.5404C17.1065 4.02248 16.5292 3.71309 15.9067 3.71309H4.65909L4.2278 1.50094C4.05825 0.631555 3.29158 0.000396729 2.40611 0.000396729H1.05531C0.713119 0.000396729 0.436523 0.277611 0.436523 0.619179C0.436523 0.960746 0.713119 1.23796 1.05531 1.23796H2.40611C2.70188 1.23796 2.95682 1.44835 3.01313 1.73856L3.5391 4.43768L4.656 11.1391H4.1486C3.12513 11.1391 2.29225 11.972 2.29225 12.9954C2.29225 14.0189 3.12513 14.8518 4.1486 14.8518H4.88123C4.81193 15.0461 4.76738 15.2528 4.76738 15.4706C4.76738 16.494 5.60026 17.3269 6.62372 17.3269C7.64719 17.3269 8.48007 16.494 8.48007 15.4706C8.48007 15.2528 8.43552 15.0461 8.36621 14.8518H10.4509C10.3816 15.0461 10.337 15.2528 10.337 15.4706C10.337 16.494 11.1699 17.3269 12.1934 17.3269C13.2168 17.3269 14.0497 16.494 14.0497 15.4706C14.0497 15.2528 14.0052 15.0461 13.9359 14.8518H14.6685C15.0107 14.8518 15.2873 14.5746 15.2873 14.233C15.2873 13.8914 15.0107 13.6142 14.6685 13.6142H4.14922C3.80765 13.6142 3.53043 13.3364 3.53043 12.9954C3.53043 12.6545 3.80765 12.3767 4.14922 12.3767L13.8437 12.376Z" fill="#E2BE86"/>
</svg>
