<svg width="28" height="26" viewBox="0 0 28 26" fill="none" xmlns="http://www.w3.org/2000/svg">
<path d="M13.8437 20.376C14.5955 20.376 15.2681 19.9274 15.5571 19.2338L17.6195 14.2835C17.8589 13.7093 17.7958 13.0577 17.4518 12.5404C17.1065 12.0225 16.5292 11.7131 15.9067 11.7131H4.65909L4.2278 9.50094C4.05825 8.63155 3.29158 8.0004 2.40611 8.0004H1.05531C0.713119 8.0004 0.436523 8.27761 0.436523 8.61918C0.436523 8.96075 0.713119 9.23796 1.05531 9.23796H2.40611C2.70188 9.23796 2.95682 9.44835 3.01313 9.73856L3.5391 12.4377L4.656 19.1391H4.1486C3.12513 19.1391 2.29225 19.972 2.29225 20.9954C2.29225 22.0189 3.12513 22.8518 4.1486 22.8518H4.88123C4.81193 23.0461 4.76738 23.2528 4.76738 23.4706C4.76738 24.494 5.60026 25.3269 6.62372 25.3269C7.64719 25.3269 8.48007 24.494 8.48007 23.4706C8.48007 23.2528 8.43552 23.0461 8.36621 22.8518H10.4509C10.3816 23.0461 10.337 23.2528 10.337 23.4706C10.337 24.494 11.1699 25.3269 12.1934 25.3269C13.2168 25.3269 14.0497 24.494 14.0497 23.4706C14.0497 23.2528 14.0052 23.0461 13.9359 22.8518H14.6685C15.0107 22.8518 15.2873 22.5746 15.2873 22.233C15.2873 21.8914 15.0107 21.6142 14.6685 21.6142H4.14922C3.80765 21.6142 3.53043 21.3364 3.53043 20.9954C3.53043 20.6545 3.80765 20.3767 4.14922 20.3767L13.8437 20.376Z" fill="#E2BE86"/>
<rect x="10" y="0.13797" width="18" height="18" rx="9" fill="#FF6B6B"/>
<path d="M16.4716 12.138V11.2516L18.5426 9.33399C18.7188 9.16354 18.8665 9.01013 18.9858 8.87377C19.107 8.7374 19.1989 8.60388 19.2614 8.4732C19.3239 8.34062 19.3551 8.19763 19.3551 8.04422C19.3551 7.87377 19.3163 7.72698 19.2386 7.60388C19.161 7.47888 19.0549 7.38323 18.9205 7.31695C18.786 7.24877 18.6335 7.21467 18.4631 7.21467C18.285 7.21467 18.1297 7.25066 17.9972 7.32263C17.8646 7.3946 17.7623 7.49782 17.6903 7.63229C17.6184 7.76676 17.5824 7.9268 17.5824 8.1124H16.4148C16.4148 7.73172 16.5009 7.40123 16.6733 7.12092C16.8456 6.84062 17.0871 6.62377 17.3977 6.47036C17.7083 6.31695 18.0663 6.24024 18.4716 6.24024C18.8883 6.24024 19.2509 6.31411 19.5597 6.46183C19.8703 6.60767 20.1117 6.81032 20.2841 7.06979C20.4564 7.32926 20.5426 7.62661 20.5426 7.96183C20.5426 8.18153 20.4991 8.39839 20.4119 8.6124C20.3267 8.82642 20.1742 9.06411 19.9545 9.32547C19.7348 9.58494 19.4252 9.89649 19.0256 10.2601L18.1761 11.0925V11.1323H20.6193V12.138H16.4716Z" fill="white"/>
</svg>
